<svg viewBox="0 0 100 100" xmlns="http://www.w3.org/2000/svg"><symbol viewBox="0 0 284.04 63.46" id="icon-arabesques"><title>arabesques</title><path class="cls-1" d="M45.1,3.16c2.69-.48,5.61-0.92,8.72-1.26,1.54-.17,3.17-0.33,4.76-0.44s3.32-.1,5-0.1A99.31,99.31,0,0,1,84.73,3.51a83,83,0,0,1,19.92,7.08,1.76,1.76,0,0,0,.86.29l0.7,0.06,1.25,0.13,2.45,0.29c1.62,0.21,3.19.46,4.72,0.73,3.05,0.55,5.93,1.19,8.53,1.9a61.91,61.91,0,0,1,12.17,4.61c2.8,1.44,4.3,2.47,4.49,2.24s-1.13-1.56-3.88-3.31a48.39,48.39,0,0,0-12.29-5.29,88.74,88.74,0,0,0-8.69-2q-2.34-.42-4.81-0.75c-0.82-.11-1.66-0.21-2.5-0.29l-1.27-.12a2,2,0,0,1-.9-0.16,80,80,0,0,0-20.44-7A97.18,97.18,0,0,0,63.59.22c-1.71,0-3.4.14-5,.23S55.28,0.81,53.71,1c-3.12.44-6,1-8.72,1.53-5.2,1.09-9.48,2.23-12.56,3a0.12,0.12,0,0,0-.12.12,0.14,0.14,0,0,0,.17.06C35.58,5.08,39.9,4.08,45.1,3.16Z"/><path class="cls-1" d="M148.72,18.6A62.2,62.2,0,0,1,160.88,14c2.6-.71,5.48-1.36,8.53-1.92,1.53-.27,3.1-0.53,4.72-0.74l2.45-.3,1.25-.13,0.7-.07a1.75,1.75,0,0,0,.86-0.29A82.71,82.71,0,0,1,199.3,3.38a98.13,98.13,0,0,1,21.12-2.21c1.71,0,3.38,0,5,.09s3.22,0.25,4.77.42c3.11,0.33,6,.77,8.72,1.24,5.22,0.91,9.55,1.91,12.66,2.59a0.13,0.13,0,0,0,.17-0.06,0.13,0.13,0,0,0-.13-0.13c-3.08-.79-7.37-1.92-12.58-3-2.69-.55-5.61-1.08-8.73-1.51-1.56-.22-3.16-0.41-4.82-0.56s-3.34-.18-5.05-0.23A96.33,96.33,0,0,0,199,1.8a80.06,80.06,0,0,0-20.42,7,0.62,0.62,0,0,1-.33.11L177.65,9l-1.28.12q-1.26.14-2.5,0.3c-1.65.22-3.25,0.48-4.81,0.76a88.83,88.83,0,0,0-8.68,2,48.6,48.6,0,0,0-12.28,5.32c-2.74,1.76-4,3.15-3.86,3.32S145.92,20,148.72,18.6Z"/><path class="cls-1" d="M145.61,48.77A12.31,12.31,0,0,0,149.22,52a11.19,11.19,0,0,0,4.52,1.46,14.42,14.42,0,0,0,8.15-1.65,11.86,11.86,0,0,0,3-2.24,9.36,9.36,0,0,0,2.28-3.92,9.72,9.72,0,0,0-.1-5.46,7.81,7.81,0,0,0-1.69-3,7.89,7.89,0,0,0-2.45-1.78,8.82,8.82,0,0,0-4.59-.78,7.62,7.62,0,0,0-3.83,1.43,6.14,6.14,0,0,0-2.21,3.14,7.48,7.48,0,0,0-.21.9,5.2,5.2,0,0,0-.07.94,5.51,5.51,0,0,0,.35,1.75,4.85,4.85,0,0,0,1.9,2.42,4.27,4.27,0,0,0,2.33.65,4.76,4.76,0,0,0,1-.11,3.87,3.87,0,0,0,.9-0.3,3.73,3.73,0,0,0,1.29-1,3.94,3.94,0,0,0,.69-1.42,2.74,2.74,0,0,0,.07-1c-0.09-.53-0.32-0.7-0.61-0.66a0.66,0.66,0,0,0-.56.54,4.74,4.74,0,0,1-.84,1.61,2.82,2.82,0,0,1-2,.91,3,3,0,0,1-2.91-1.45,4,4,0,0,1-.63-2.27,5.27,5.27,0,0,1,.87-2.66,6.54,6.54,0,0,1,5.87-2.55,7.66,7.66,0,0,1,3.63,1.15A6.66,6.66,0,0,1,166.13,40a8.26,8.26,0,0,1,.18,4.82,7.45,7.45,0,0,1-2,3.4,9.3,9.3,0,0,1-2.78,1.83,11.36,11.36,0,0,1-2.74.8,12.81,12.81,0,0,1-4.69-.12,12.24,12.24,0,0,1-3.64-1.41,9.5,9.5,0,0,1-4.47-6.1,10.1,10.1,0,0,1,0-4.25,11.83,11.83,0,0,1,1.73-4.12,15.66,15.66,0,0,1,3.13-3.44,26.15,26.15,0,0,1,4.07-2.67A49.39,49.39,0,0,1,164.38,25a86.5,86.5,0,0,1,12.77-2.6,9.14,9.14,0,0,0-1.77,2.49,6,6,0,0,0-.49,3.73,5.51,5.51,0,0,0,1.8,3,7.75,7.75,0,0,0,2.53,1.44,11.63,11.63,0,0,0,2.45.57,18.34,18.34,0,0,0,4.36,0,32.05,32.05,0,0,0,3.76-.7A89.37,89.37,0,0,0,203.51,28c1.27-.52,4.75-2.14,8.85-3.7,1.34,0.29,3,.65,5,1.11,2.53,0.59,5.49,1.32,8.72,2.17,1.62,0.41,3.29.93,5.06,1.3a28.47,28.47,0,0,0,5.46.66,14.46,14.46,0,0,0,4-.44,7.6,7.6,0,0,0,1.91-.78A4.54,4.54,0,0,0,244,26.81a3.44,3.44,0,0,0,.49-2.34,4.67,4.67,0,0,0-1-2.15,9.18,9.18,0,0,0-3.41-2.56,19.69,19.69,0,0,0-7.4-1.6,37.14,37.14,0,0,0-6.38.37c-1.78.23-4,.58-6.39,1.08s-4.89,1.16-7.25,1.89c-0.9.28-1.78,0.56-2.62,0.84L208.82,22c-1.9-.43-3.81-0.85-5.73-1.2s-3.87-.62-5.8-0.81a96.84,96.84,0,0,0-11.54-.4l-2.2.08c1.24-.66,2.56-1.34,3.94-2A68.4,68.4,0,0,1,197,14.13a63.51,63.51,0,0,1,7.75-1.74,66,66,0,0,1,12.8-.71c3.62,0.14,6.35.51,7.62,0.65a120,120,0,0,1,13.62,2.51c4.46,1.07,8.82,2.31,13,3.47A95.19,95.19,0,0,0,264,21.07a23.72,23.72,0,0,0,5.8.13,12,12,0,0,0,5.25-1.79,7.22,7.22,0,0,0,2.17-2.26,7.54,7.54,0,0,0,1.08-3.74,8,8,0,0,0-1.43-4.7,7.4,7.4,0,0,0-5-3.13,7.07,7.07,0,0,0-5.54,1.35,5.24,5.24,0,0,0-1.45,1.85,5,5,0,0,0-.45,2.21,4.25,4.25,0,0,0,.17,1.08A4.84,4.84,0,0,0,265,13a4.41,4.41,0,0,0,1.11,1.38,3.27,3.27,0,0,0,1.37.67,3.5,3.5,0,0,0,1.25,0,3.22,3.22,0,0,0,1.75-.85,2.62,2.62,0,0,0,.88-1.83c0-.47-0.21-0.61-0.43-0.59a0.5,0.5,0,0,0-.44.28A6.79,6.79,0,0,1,270,13a2.5,2.5,0,0,1-1,.78,2.44,2.44,0,0,1-1.81.08,3.21,3.21,0,0,1-1.77-2.06,3.88,3.88,0,0,1,.82-3.58,5.76,5.76,0,0,1,5.29-1.7,5.9,5.9,0,0,1,2.54,1,5.83,5.83,0,0,1,1.64,1.78,5.59,5.59,0,0,1,.73,3.72,4.9,4.9,0,0,1-1.14,2.41,7.93,7.93,0,0,1-1.66,1.41,9.93,9.93,0,0,1-4.2,1.43,22.33,22.33,0,0,1-5.23,0,102,102,0,0,1-12-2.37c-4.23-1-8.66-2.11-13.2-3a121.38,121.38,0,0,0-13.88-2c-0.11,0-2.21-.15-5.8-0.17a89.66,89.66,0,0,0-14.68,1.1,76.88,76.88,0,0,0-14.53,3.78,74.29,74.29,0,0,0-7.73,3.39l-1.79.95a90.36,90.36,0,0,0-17,2.73,50.19,50.19,0,0,0-10,3.77,27.18,27.18,0,0,0-4.48,2.86,17.8,17.8,0,0,0-3.68,4,14.51,14.51,0,0,0-2.18,5.11,13.32,13.32,0,0,0,0,5.61A12.84,12.84,0,0,0,145.61,48.77Zm93.76-34.91c6.7,1.35,13.15,3.13,19.12,4.38a45.63,45.63,0,0,0,8.54,1.1,12.69,12.69,0,0,0,7.08-1.7,10,10,0,0,0,1.48-1.17,5.92,5.92,0,0,0,1.79-4.5,6.74,6.74,0,0,1-.06,2.76,6.44,6.44,0,0,1-1.09,2.35,6.23,6.23,0,0,1-1.59,1.51,10.65,10.65,0,0,1-4,1.52,18.59,18.59,0,0,1-4.52.21,54.82,54.82,0,0,1-9.71-1.76c-6.71-1.72-13.94-4-21.54-5.56C236.41,13.27,237.9,13.56,239.37,13.86Zm-13,6.42a35.81,35.81,0,0,1,6.47-.71,17.63,17.63,0,0,1,7.25,1.33,7.37,7.37,0,0,1,3,2.34,3.25,3.25,0,0,1,.61,1.73,2.6,2.6,0,0,1-.56,1.66,5.68,5.68,0,0,1-3.1,1.8,13.65,13.65,0,0,1-3.56.38,26.25,26.25,0,0,1-5.4-.69c-1.72-.38-3.37-0.92-5-1.37-3.16-.91-6-1.72-8.47-2.39l-3.22-.87c1.89-.67,3.85-1.29,5.73-1.81C222.52,21.06,224.68,20.59,226.42,20.28ZM186,21.64a93.56,93.56,0,0,1,11.38.16,79.52,79.52,0,0,1,10,1.48c-2.29.83-4.06,1.55-4.87,1.88-5.18,2.18-8.89,3.95-13.36,5.34a28.82,28.82,0,0,1-3.5.88,16.13,16.13,0,0,1-4,.25,9.61,9.61,0,0,1-2.13-.39,5.86,5.86,0,0,1-2-1.05,3.53,3.53,0,0,1-1.26-2,4.33,4.33,0,0,1,.35-2.68,6.45,6.45,0,0,1,.74-1.27,10.63,10.63,0,0,1,2.11-2.12Q182.73,21.8,186,21.64Z"/><path class="cls-1" d="M6.79,17.48A7.18,7.18,0,0,0,9,19.73a12,12,0,0,0,5.26,1.78A24,24,0,0,0,20,21.37a95.21,95.21,0,0,0,12.2-2.79c4.2-1.17,8.55-2.42,13-3.5a118.56,118.56,0,0,1,13.62-2.54c1.26-.15,4-0.52,7.61-0.67a66.27,66.27,0,0,1,12.8.68A63.69,63.69,0,0,1,87,14.26a68.65,68.65,0,0,1,9.56,3.57c1.39,0.64,2.71,1.31,3.95,2l-2.2-.08a96.7,96.7,0,0,0-11.55.43c-1.93.19-3.87,0.46-5.8,0.82s-3.83.77-5.73,1.22L74,22.5c-0.84-.28-1.72-0.56-2.62-0.84-2.36-.72-4.88-1.37-7.26-1.87s-4.61-.85-6.39-1.07a37.67,37.67,0,0,0-6.38-.35A19.7,19.7,0,0,0,43.93,20a9.15,9.15,0,0,0-3.4,2.57,4.67,4.67,0,0,0-1,2.16,3.43,3.43,0,0,0,.49,2.34,4.6,4.6,0,0,0,1.59,1.48,7.55,7.55,0,0,0,1.91.78,14.63,14.63,0,0,0,4,.43A28.4,28.4,0,0,0,53,29.07c1.77-.37,3.44-0.89,5.05-1.31,3.23-.86,6.19-1.6,8.71-2.19,1.94-.46,3.62-0.83,5-1.12,4.1,1.56,7.58,3.16,8.85,3.68A89.44,89.44,0,0,0,94.31,33a30.65,30.65,0,0,0,3.76.69,18.19,18.19,0,0,0,4.37,0,11.46,11.46,0,0,0,2.45-.58,7.74,7.74,0,0,0,2.52-1.45,5.5,5.5,0,0,0,1.79-3,6,6,0,0,0-.5-3.73,9.11,9.11,0,0,0-1.77-2.48,85.56,85.56,0,0,1,12.78,2.56,49.41,49.41,0,0,1,9.55,3.75,25.72,25.72,0,0,1,4.08,2.66,15.65,15.65,0,0,1,3.14,3.43A11.69,11.69,0,0,1,138.2,39a10,10,0,0,1,0,4.25,9.48,9.48,0,0,1-4.45,6.1,12.23,12.23,0,0,1-3.63,1.42,12.89,12.89,0,0,1-4.68.13,11.55,11.55,0,0,1-2.75-.79,9.42,9.42,0,0,1-2.78-1.83,7.44,7.44,0,0,1-2-3.39,8.23,8.23,0,0,1,.17-4.82,6.65,6.65,0,0,1,2.73-3.43,7.62,7.62,0,0,1,3.63-1.16,6.53,6.53,0,0,1,5.87,2.54,5.23,5.23,0,0,1,.88,2.65,4,4,0,0,1-.63,2.27,3.17,3.17,0,0,1-1.42,1.23,3.12,3.12,0,0,1-1.5.22,2.81,2.81,0,0,1-2-.91,4.7,4.7,0,0,1-.84-1.61,0.66,0.66,0,0,0-.56-0.54c-0.28,0-.52.13-0.6,0.67a2.68,2.68,0,0,0,.07,1,3.72,3.72,0,0,0,.69,1.42,3.6,3.6,0,0,0,1.29,1,4,4,0,0,0,.9.3,5.15,5.15,0,0,0,1,.1,4.25,4.25,0,0,0,2.33-.66,4.83,4.83,0,0,0,1.89-2.42,5.41,5.41,0,0,0,.34-1.75,4.82,4.82,0,0,0-.07-0.94,6.71,6.71,0,0,0-.21-0.91,6.14,6.14,0,0,0-2.21-3.13,7.7,7.7,0,0,0-3.84-1.42,8.85,8.85,0,0,0-4.59.79,7.67,7.67,0,0,0-4.12,4.74A9.71,9.71,0,0,0,117,45.7a9.38,9.38,0,0,0,2.28,3.91,12,12,0,0,0,3,2.23A14.39,14.39,0,0,0,125.18,53a14,14,0,0,0,5.22.46A11.19,11.19,0,0,0,134.93,52a12.28,12.28,0,0,0,3.6-3.23,12.71,12.71,0,0,0,2.23-4.86,13.24,13.24,0,0,0,0-5.61,14.53,14.53,0,0,0-2.19-5.11,17.79,17.79,0,0,0-3.69-4,26.82,26.82,0,0,0-4.48-2.84,50.29,50.29,0,0,0-10-3.75,90,90,0,0,0-17-2.69c-0.6-.32-1.2-0.64-1.8-0.95a73.63,73.63,0,0,0-7.74-3.38A76.63,76.63,0,0,0,79.37,11.9a89.57,89.57,0,0,0-14.69-1.07c-3.59,0-5.68.18-5.8,0.18A121.42,121.42,0,0,0,45,13.07c-4.54.93-9,2-13.19,3.05a101,101,0,0,1-12,2.4,22.51,22.51,0,0,1-5.24,0,9.89,9.89,0,0,1-4.2-1.42,7.73,7.73,0,0,1-1.66-1.4,4.88,4.88,0,0,1-1.15-2.4,5.57,5.57,0,0,1,.72-3.72A5.78,5.78,0,0,1,9.95,7.84a5.89,5.89,0,0,1,2.54-1,5.75,5.75,0,0,1,5.3,1.69,3.87,3.87,0,0,1,.83,3.58,3.2,3.2,0,0,1-1.77,2.07A2.42,2.42,0,0,1,15,14.07a2.51,2.51,0,0,1-1-.78,6.2,6.2,0,0,1-.53-0.91,0.52,0.52,0,0,0-.44-0.28c-0.22,0-.42.12-0.43,0.59a2.62,2.62,0,0,0,.88,1.83,3.23,3.23,0,0,0,1.76.85,3.5,3.5,0,0,0,1.25,0,3.24,3.24,0,0,0,1.37-.68A4.36,4.36,0,0,0,19,13.29a4.66,4.66,0,0,0,.37-0.92,4.11,4.11,0,0,0,.16-1.08,4.91,4.91,0,0,0-.46-2.21,5.21,5.21,0,0,0-1.45-1.85A7.07,7.07,0,0,0,12.1,5.89,7.41,7.41,0,0,0,7.13,9a8,8,0,0,0-1.42,4.7A7.49,7.49,0,0,0,6.79,17.48Zm59.57,7.07C63.92,25.23,61.07,26,57.9,27c-1.59.45-3.23,1-5,1.38a26.24,26.24,0,0,1-5.4.7A13.58,13.58,0,0,1,44,28.67a5.66,5.66,0,0,1-3.11-1.79,2.6,2.6,0,0,1-.57-1.66,3.28,3.28,0,0,1,.61-1.73,7.34,7.34,0,0,1,3-2.35,17.67,17.67,0,0,1,7.26-1.35,36.8,36.8,0,0,1,6.47.69c1.74,0.31,3.9.77,6.19,1.4,1.88,0.5,3.84,1.13,5.73,1.79Zm38.2-2.32a10.34,10.34,0,0,1,2.11,2.11,7,7,0,0,1,.75,1.26,4.37,4.37,0,0,1,.35,2.68,3.59,3.59,0,0,1-1.26,2,5.89,5.89,0,0,1-2,1,9.49,9.49,0,0,1-2.13.39,15.75,15.75,0,0,1-4-.24,29.1,29.1,0,0,1-3.51-.87c-4.47-1.39-8.18-3.14-13.37-5.31-0.81-.33-2.58-1-4.87-1.87a79.63,79.63,0,0,1,10-1.51,95,95,0,0,1,11.38-.18Q101.34,21.89,104.56,22.23ZM7.15,14.89A6.1,6.1,0,0,0,8.47,16.8,10,10,0,0,0,10,18,12.66,12.66,0,0,0,17,19.64a45.86,45.86,0,0,0,8.55-1.12c6-1.26,12.42-3.06,19.11-4.43,1.47-.3,3-0.59,4.46-0.85-7.59,1.6-14.81,3.88-21.52,5.61a55.35,55.35,0,0,1-9.71,1.78,18.59,18.59,0,0,1-4.52-.2,10.65,10.65,0,0,1-4-1.51,6.3,6.3,0,0,1-1.59-1.5,6.42,6.42,0,0,1-1.09-2.35,6.73,6.73,0,0,1-.07-2.77A6,6,0,0,0,7.15,14.89Z"/><path class="cls-1" d="M0.13,23.23a15.35,15.35,0,0,0,5.51,5.21,21.52,21.52,0,0,0,9.76,2.62,46.82,46.82,0,0,0,12.32-1.47l1.65-.39,1.48-.37a0.4,0.4,0,0,1,.5.18s0,0.22.08,0.35l0.12,0.45c0.1,0.3.19,0.6,0.31,0.89a12.65,12.65,0,0,0,4.93,6,17.32,17.32,0,0,0,7.76,2.6,31.08,31.08,0,0,0,8.55-.35c2.91-.45,5.74-1.37,8.63-2.08s5.89-1.47,8.94-2.16a1.09,1.09,0,0,1,.63,0l1.09,0.45,2.18,0.94C76,36.76,77.55,37.41,79,38c3,1.26,6.12,2.52,9.39,3.54a44,44,0,0,0,10.26,2.11,25.54,25.54,0,0,0,5.44-.22,21.71,21.71,0,0,0,2.71-.6l0.67-.21a0.28,0.28,0,0,1,.41.23V43l0,0.71a18.15,18.15,0,0,0,.14,2.86,17.87,17.87,0,0,0,1.65,5.54,19.48,19.48,0,0,0,8,8.35,23.27,23.27,0,0,0,11.41,3,20.19,20.19,0,0,0,11.5-3.52c0.4-.27.84-0.6,1.2-0.88a0.48,0.48,0,0,1,.59,0l0.33,0.25c0.22,0.17.45,0.34,0.69,0.5,0.47,0.33,1,.63,1.44.92a19.9,19.9,0,0,0,6.35,2.34,22.88,22.88,0,0,0,13-1.53,20.25,20.25,0,0,0,9.69-8.4,17.88,17.88,0,0,0,2.13-6,18.73,18.73,0,0,0,.22-3.16l0-.79,0-.36a0.26,0.26,0,0,1,.34-0.26l0.3,0.1,0.74,0.22a21.38,21.38,0,0,0,3,.59,26.54,26.54,0,0,0,6,0,51.28,51.28,0,0,0,11.12-2.7c3.52-1.23,6.84-2.67,10.11-4.06,1.57-.69,3.11-1.38,4.65-2a2.41,2.41,0,0,1,1.47-.11l0.67,0.15L217,35.31q4.91,1.16,9.54,2.41a41.37,41.37,0,0,0,9.35,1.45,22,22,0,0,0,8.85-1.44,13.57,13.57,0,0,0,6.47-5.35,11.1,11.1,0,0,0,.91-1.82c0.13-.31.23-0.63,0.33-0.94l0.13-.48c0-.08,0-0.16.06-0.24a3.47,3.47,0,0,0,.07-0.35,0.18,0.18,0,0,1,.24-0.09l0.31,0.07,1.61,0.4c2.33,0.56,4.58,1,6.73,1.35a30.37,30.37,0,0,0,11.56-.18,18.31,18.31,0,0,0,7.58-3.67A14.46,14.46,0,0,0,284,22.59a0.22,0.22,0,0,0,0-.26,0.23,0.23,0,0,0-.23.13A15.82,15.82,0,0,1,280.44,26,18.15,18.15,0,0,1,273,29.34a29.93,29.93,0,0,1-11.24-.06c-2.11-.36-4.31-0.85-6.62-1.44l-1.9-.5L252.07,27c-0.09,0-.21-0.08-0.23,0s0,0.27-.08.41l0,0.13-0.15.74-0.07.29c0,0.07,0,.14-0.06.21l-0.12.43c-0.1.28-.19,0.57-0.31,0.85a10.22,10.22,0,0,1-.84,1.62,12.3,12.3,0,0,1-5.93,4.77A20.67,20.67,0,0,1,236,37.76a39.9,39.9,0,0,1-9-1.49c-3.08-.86-6.27-1.69-9.55-2.49l-2.49-.59-1.25-.29a2.46,2.46,0,0,0-1.46.15l-0.24.1c-1.61.66-3.22,1.36-4.84,2.06-3.24,1.36-6.57,2.78-10,4a49.9,49.9,0,0,1-10.74,2.56,24.85,24.85,0,0,1-5.57-.05,19.45,19.45,0,0,1-2.74-.55l-0.67-.2L177,40.8l-0.17-.06-0.33-.14c-0.65-.26-1.32-0.55-2-0.85a0.4,0.4,0,0,0-.55.44c0.13,0.75.26,1.51,0.34,2.24l0,0.46,0,0.36,0,0.71a16.65,16.65,0,0,1-.21,2.85,15.94,15.94,0,0,1-1.92,5.41,18.48,18.48,0,0,1-8.83,7.61,21.09,21.09,0,0,1-12,1.4,18.08,18.08,0,0,1-5.75-2.13c-0.44-.27-0.89-0.54-1.31-0.84l-0.63-.46c-0.23-.18-0.33-0.24-0.78-0.63l-0.38-.32a0.93,0.93,0,0,0-1.2,0l-0.66.56c-0.48.37-.84,0.66-1.29,1a18.29,18.29,0,0,1-10.44,3.2,21.41,21.41,0,0,1-10.48-2.73,17.64,17.64,0,0,1-7.29-7.54,16,16,0,0,1-1.49-5,16.65,16.65,0,0,1-.13-2.58l0-.65c0-.23,0-0.33.09-0.89s0.2-1.36.32-2c0.06-.33-0.35-0.46-0.66-0.33-0.56.25-1.12,0.5-1.67,0.72l-0.58.24-0.3.1-0.6.19a19.35,19.35,0,0,1-2.47.56,23.9,23.9,0,0,1-5,.22,42.6,42.6,0,0,1-9.85-2c-3.19-1-6.25-2.2-9.25-3.44-1.52-.62-3-1.24-4.46-1.88L73,33.66l-1.11-.45a2.74,2.74,0,0,0-1.61-.12q-4.6,1.07-9,2.23c-2.94.75-5.71,1.67-8.48,2.12a29.82,29.82,0,0,1-8.15.42,16,16,0,0,1-7.17-2.31A11.37,11.37,0,0,1,33,30.24c-0.11-.26-0.2-0.53-0.28-0.79L32.64,29c0-.15-0.06-0.23-0.12-0.51l-0.14-.72-0.07-.35,0-.18s0-.1,0-0.09l-0.08,0-1.22.33-1.85.5-1.63.41a46.69,46.69,0,0,1-12,1.64A21,21,0,0,1,6,27.78,15.05,15.05,0,0,1,.56,22.94a0.44,0.44,0,0,0-.48-0.25A0.42,0.42,0,0,0,.13,23.23Z"/></symbol></svg>